<?xml version="1.0" encoding="utf-8"?>
<!-- Generator: Adobe Illustrator 25.2.2, SVG Export Plug-In . SVG Version: 6.00 Build 0)  -->
<svg version="1.1" id="Layer_1" xmlns="http://www.w3.org/2000/svg" xmlns:xlink="http://www.w3.org/1999/xlink" x="0px" y="0px"
	 viewBox="0 0 277 295" style="enable-background:new 0 0 277 295;" xml:space="preserve">
<style type="text/css">
	.st0{fill:url(#SVGID_1_);}
	.st1{fill:#FFFFFF;}
	.st2{fill:url(#SVGID_2_);}
	.st3{fill:url(#SVGID_3_);}
</style>
<g>
	<g>
		<linearGradient id="SVGID_1_" gradientUnits="userSpaceOnUse" x1="138.5" y1="24.7722" x2="138.5" y2="270.2278">
			<stop  offset="0" style="stop-color:#FF3D00"/>
			<stop  offset="0.1918" style="stop-color:#FF4F03"/>
			<stop  offset="0.5759" style="stop-color:#FF7D0B"/>
			<stop  offset="1" style="stop-color:#FFB714"/>
		</linearGradient>
		<path class="st0" d="M249.63,105.35c0.11-14.67-6.22-25.63-18.91-32.97c-23.95-13.85-47.89-27.73-71.82-41.61
			c-13.32-7.72-26.41-8.23-40.04-0.15C96.55,43.87,74.13,56.96,51.33,69.32c-17,9.21-24.53,22.45-23.92,41.84
			c0.81,25.53,0.36,51.1,0.1,76.65c-0.17,16.32,6.65,27.94,20.91,35.95c22.96,12.9,45.65,26.28,68.38,39.58
			c12.72,7.44,25.8,9.84,39.12,2.28c25.56-14.49,50.96-29.3,76.32-44.14c11.95-6.99,17.28-17.93,17.32-31.54
			c0.07-24.37,0.02-48.75,0.02-73.12c0.01,0,0.03,0,0.04,0C249.62,112.99,249.6,109.17,249.63,105.35z"/>
		<path class="st1" d="M203.96,159.79l-30.04-17.6l28.63-16.53c3.85-6.55,1.75-15.14-6.1-19.77c-1.79-1.06-3.59-2.11-5.38-3.17
			c-0.15-0.09-0.3-0.18-0.45-0.27l-0.01,0.01l-30.05-17.6l0.01,0c-4.66-2.74-9.32-5.48-13.96-8.24c-5.56-3.3-10.75-2.99-16.17,0.19
			c-16.28,9.56-32.54,19.16-48.97,28.45c-5.62,3.18-8.43,7.52-8.29,13.85c0.12,5.23,0.38,10.47,0.52,15.7l-0.3,35.13l-0.01,1.19
			c-0.03,2.26-0.05,4.53-0.06,6.79c-0.02,4.86,2,8.84,6.42,11.39c2.09,1.2,4.18,2.41,6.27,3.62l0,0.01l30.26,17.47l0,0
			c0.04,0.02,0.07,0.04,0.11,0.06c5.3,3.06,10.59,6.13,15.89,9.19c4.37,2.53,8.64,2.38,13.01-0.16
			c17.32-10.06,34.8-19.87,51.93-30.25c2.88-1.75,5.77-5.69,6.16-8.92c0.82-6.78,0.69-13.69,0.63-20.57L203.96,159.79z
			 M74.25,169.64l0.3-35.12l85.15-49.16l30.02,17.61L74.25,169.64z M117.19,209.89L86.9,192.43l86.17-49.75l30,17.63L117.19,209.89z
			"/>
	</g>
</g>
</svg>
