<?xml version="1.0" encoding="utf-8"?>
<!-- Generator: Adobe Illustrator 25.2.2, SVG Export Plug-In . SVG Version: 6.00 Build 0)  -->
<svg version="1.1" id="Layer_1" xmlns="http://www.w3.org/2000/svg" xmlns:xlink="http://www.w3.org/1999/xlink" x="0px" y="0px"
	 viewBox="0 0 840 295" style="enable-background:new 0 0 840 295;" xml:space="preserve">
<style type="text/css">
	.st0{fill:url(#SVGID_1_);}
	.st1{fill:#FFFFFF;}
	.st2{fill:url(#SVGID_2_);}
	.st3{fill:url(#SVGID_3_);}
</style>
<g>
	<g>
		<g>
			<path class="st1" d="M341.72,186.55c10.06,0,16.94-4.46,22.29-10.19l4.33,3.82c-6.62,7.13-14.39,12.23-26.88,12.23
				c-17.07,0-31.84-13.63-31.84-33.88v-0.25c0-18.85,13.25-33.88,30.83-33.88c18.21,0,29.81,14.78,29.81,34.01v0.25
				c0,0.89,0,1.27-0.13,2.29h-53.88C317.39,177.13,328.98,186.55,341.72,186.55z M363.5,155.35c-0.89-13.12-8.41-25.22-23.31-25.22
				c-12.86,0-22.8,10.83-23.95,25.22H363.5z"/>
			<path class="st1" d="M452.16,190.88l-36.68-45.09l-22.16,22.42v22.67h-6.62v-89.16h6.62v58.59l56.81-58.59h9.04l-38.98,39.36
				l40.63,49.8H452.16z"/>
			<path class="st1" d="M516.48,190.88v-10.83c-4.46,6.24-12.48,12.36-24.84,12.36c-12.1,0-25.09-6.88-25.09-20.38v-0.25
				c0-13.5,11.59-21.14,28.41-21.14c9.04,0,15.29,1.15,21.53,2.8v-2.8c0-13.12-8.02-19.87-21.4-19.87c-7.9,0-14.39,2.17-20.38,5.22
				l-2.29-5.48c7.13-3.31,14.14-5.6,23.06-5.6c16.69,0,27.13,8.66,27.13,25.48v40.51H516.48z M516.61,159.17
				c-5.48-1.4-12.74-2.93-22.04-2.93c-13.76,0-21.4,6.11-21.4,15.16v0.25c0,9.43,8.92,14.9,18.85,14.9c13.25,0,24.58-8.15,24.58-20
				V159.17z"/>
			<path class="st1" d="M542.72,190.88V97.9h6.24v92.99H542.72z"/>
			<path class="st1" d="M598,186.55c10.06,0,16.94-4.46,22.29-10.19l4.33,3.82c-6.62,7.13-14.39,12.23-26.88,12.23
				c-17.07,0-31.84-13.63-31.84-33.88v-0.25c0-18.85,13.25-33.88,30.83-33.88c18.21,0,29.81,14.78,29.81,34.01v0.25
				c0,0.89,0,1.27-0.13,2.29h-53.88C573.67,177.13,585.26,186.55,598,186.55z M619.78,155.35c-0.89-13.12-8.41-25.22-23.31-25.22
				c-12.86,0-22.8,10.83-23.95,25.22H619.78z"/>
			<path class="st1" d="M641.69,108.98v-8.53h7.77v8.53H641.69z M642.45,190.88v-64.96h6.24v64.96H642.45z"/>
			<path class="st1" d="M724.23,190.88v-14.52c-5.6,8.53-13.88,16.05-26.75,16.05c-15.67,0-31.59-12.61-31.59-33.75v-0.25
				c0-21.14,15.92-34.01,31.59-34.01c12.99,0,21.4,7.39,26.75,15.54V97.9h6.24v92.99H724.23z M724.61,158.28
				c0-16.69-12.99-27.9-26.49-27.9c-14.14,0-25.48,10.32-25.48,27.77v0.25c0,17.07,11.85,28.02,25.48,28.02
				c13.5,0,26.49-11.34,26.49-27.9V158.28z"/>
			<path class="st1" d="M779.76,192.41c-19.23,0-33.25-15.54-33.25-33.75v-0.25c0-18.21,14.14-34.01,33.5-34.01
				c19.23,0,33.25,15.54,33.25,33.75v0.25C813.26,176.62,799.12,192.41,779.76,192.41z M806.51,158.4
				c0-15.67-11.72-28.15-26.75-28.15c-15.41,0-26.49,12.61-26.49,27.9v0.25c0,15.67,11.72,28.15,26.75,28.15
				c15.41,0,26.49-12.61,26.49-27.9V158.4z"/>
		</g>
	</g>
	<g>
		<linearGradient id="SVGID_1_" gradientUnits="userSpaceOnUse" x1="144.9842" y1="24.4672" x2="144.9842" y2="269.9228">
			<stop  offset="0" style="stop-color:#FF3D00"/>
			<stop  offset="0.1918" style="stop-color:#FF4F03"/>
			<stop  offset="0.5759" style="stop-color:#FF7D0B"/>
			<stop  offset="1" style="stop-color:#FFB714"/>
		</linearGradient>
		<path class="st0" d="M256.11,105.05c0.11-14.67-6.22-25.63-18.91-32.97c-23.95-13.85-47.89-27.73-71.82-41.61
			c-13.32-7.72-26.41-8.23-40.04-0.15c-22.31,13.24-44.72,26.33-67.53,38.69c-17,9.21-24.53,22.45-23.92,41.84
			c0.81,25.53,0.36,51.1,0.1,76.65c-0.17,16.32,6.65,27.94,20.91,35.95c22.96,12.9,45.65,26.28,68.38,39.58
			c12.72,7.44,25.8,9.84,39.12,2.28c25.56-14.49,50.96-29.3,76.32-44.14c11.95-6.99,17.28-17.93,17.32-31.54
			c0.07-24.37,0.02-48.75,0.02-73.12c0.01,0,0.03,0,0.04,0C256.11,112.69,256.08,108.86,256.11,105.05z"/>
		<path class="st1" d="M210.45,159.48l-30.04-17.6l28.63-16.53c3.85-6.55,1.75-15.14-6.1-19.77c-1.79-1.06-3.59-2.11-5.38-3.17
			c-0.15-0.09-0.3-0.18-0.45-0.27l-0.01,0.01l-30.05-17.6l0.01,0c-4.66-2.74-9.32-5.48-13.96-8.24c-5.56-3.3-10.75-2.99-16.17,0.19
			c-16.28,9.56-32.54,19.16-48.97,28.45c-5.62,3.18-8.43,7.52-8.29,13.85c0.12,5.23,0.38,10.47,0.52,15.7l-0.3,35.13l-0.01,1.19
			c-0.03,2.26-0.05,4.53-0.06,6.79c-0.02,4.86,2,8.84,6.42,11.39c2.09,1.2,4.18,2.41,6.27,3.62l0,0.01l30.26,17.47v0
			c0.04,0.02,0.07,0.04,0.11,0.06c5.3,3.06,10.59,6.13,15.89,9.19c4.37,2.53,8.64,2.38,13.01-0.16
			c17.32-10.06,34.8-19.87,51.93-30.25c2.88-1.75,5.77-5.69,6.16-8.92c0.82-6.78,0.69-13.69,0.63-20.57L210.45,159.48z
			 M80.74,169.34l0.3-35.12l85.15-49.16l30.02,17.61L80.74,169.34z M123.68,209.58l-30.29-17.45l86.17-49.75l30,17.63L123.68,209.58
			z"/>
	</g>
</g>
</svg>
